<svg width="32" height="33" xmlns="http://www.w3.org/2000/svg"><g fill="#000" fill-rule="nonzero"><path d="M24.255 15.567c0-4.483-3.71-8.142-8.255-8.142-4.545 0-8.255 3.659-8.255 8.142 0 .646.073 1.292.255 1.937.218 1.04.618 1.686 1.164 2.583.109.215.254.43.4.681.181.287.327.574.509.825.727 1.184 1.163 1.866 1.163 3.265v3.371c0 .861.619 1.543 1.455 1.686.364 1.83 1.454 2.977 3.309 2.977 1.855 0 2.982-1.147 3.31-2.977.835-.143 1.454-.86 1.454-1.686v-3.371c0-1.4.436-2.117 1.163-3.265.146-.25.328-.538.51-.825.145-.25.29-.466.4-.681.545-.897.945-1.542 1.163-2.583a7.09 7.09 0 0 0 .255-1.937zm-4.91 10.151h-6.618v-.825c0-.179 0-.322-.036-.466h6.654c0 .144-.036.287-.036.466v.825h.036zm-.327 2.834h-6.036a.285.285 0 0 1-.291-.287v-1.112h6.618v1.112c.036.144-.109.287-.29.287zM16 31.493c-.4 0-1.418 0-1.818-1.506h3.673c-.4 1.506-1.455 1.506-1.855 1.506zm6.582-14.276c-.182.79-.473 1.328-.982 2.153-.145.215-.255.43-.4.681-.182.287-.327.574-.473.79-.436.717-.836 1.362-1.09 2.116h-7.2c-.255-.754-.619-1.4-1.092-2.117-.145-.25-.327-.502-.472-.789-.146-.251-.291-.502-.4-.681-.51-.861-.8-1.363-.982-2.188a6.162 6.162 0 0 1-.218-1.615c0-3.694 3.054-6.707 6.8-6.707 3.745 0 6.8 3.013 6.8 6.707-.073.538-.146 1.076-.291 1.65zM30.982 14.85h-3.018c-.4 0-.728.323-.728.717 0 .395.328.718.728.718h3.018c.4 0 .727-.323.727-.718a.725.725 0 0 0-.727-.717zM24.436 7.963a.723.723 0 0 0 .51-.215l2.145-2.116a.687.687 0 0 0 0-1.005.71.71 0 0 0-1.018 0l-2.146 2.116a.687.687 0 0 0 0 1.005.723.723 0 0 0 .51.215zM16 4.484c.4 0 .727-.323.727-.718V.79A.725.725 0 0 0 16 .072c-.4 0-.727.323-.727.717v2.977c0 .395.327.718.727.718zM7.055 7.748a.723.723 0 0 0 .509.215.723.723 0 0 0 .509-.215.687.687 0 0 0 0-1.005L5.927 4.627a.71.71 0 0 0-1.018 0 .687.687 0 0 0 0 1.005l2.146 2.116zM4.073 14.85H1.055c-.4 0-.728.323-.728.717 0 .395.328.718.728.718h3.018c.4 0 .727-.323.727-.718a.725.725 0 0 0-.727-.717zM7.055 23.387l-2.146 2.116a.687.687 0 0 0 0 1.005.723.723 0 0 0 .51.215.723.723 0 0 0 .508-.215l2.146-2.117a.687.687 0 0 0 0-1.004c-.291-.287-.764-.287-1.018 0zM24.945 23.387a.71.71 0 0 0-1.018 0 .687.687 0 0 0 0 1.004l2.146 2.117a.723.723 0 0 0 .509.215.723.723 0 0 0 .509-.215.687.687 0 0 0 0-1.005l-2.146-2.116z"/></g></svg>